<?xml version="1.0" standalone="no"?>
<!DOCTYPE svg PUBLIC "-//W3C//DTD SVG 20010904//EN"
 "http://www.w3.org/TR/2001/REC-SVG-20010904/DTD/svg10.dtd">
<svg version="1.0" xmlns="http://www.w3.org/2000/svg"
 width="64.000000pt" height="64.000000pt" viewBox="0 0 64.000000 64.000000"
 preserveAspectRatio="xMidYMid meet">

<g transform="translate(0.000000,64.000000) scale(0.100000,-0.100000)"
fill="#000000" stroke="none">
<path d="M165 561 c-100 -41 -85 -207 21 -227 65 -12 134 48 134 116 0 78 -85
139 -155 111z m92 -53 c48 -45 16 -138 -48 -138 -15 0 -37 9 -50 19 -33 27
-33 95 0 122 31 25 69 24 98 -3z"/>
<path d="M399 521 c-23 -23 -29 -38 -29 -71 0 -90 99 -133 161 -71 62 62 20
171 -66 171 -27 0 -44 -8 -66 -29z m109 -29 c16 -21 15 -63 -1 -86 -18 -24
-67 -24 -84 0 -8 11 -13 35 -11 54 5 54 62 73 96 32z"/>
<path d="M407 316 c-21 -8 -47 -22 -57 -31 -17 -15 -20 -15 -43 0 -34 22 -116
30 -161 15 -80 -26 -145 -113 -146 -192 l0 -38 205 0 205 0 0 25 0 25 115 0
115 0 0 33 c0 39 -30 105 -58 130 -23 21 -87 46 -117 46 -11 0 -37 -6 -58 -13z
m119 -42 c34 -17 74 -69 74 -98 0 -14 -14 -16 -97 -16 l-98 1 -20 42 c-10 23
-19 44 -20 46 0 2 16 12 35 22 43 23 81 24 126 3z m-248 -18 c41 -22 79 -67
90 -108 l10 -38 -169 0 c-184 0 -180 -1 -158 57 14 37 47 73 84 89 40 17 109
17 143 0z"/>
</g>
</svg>
