<?xml version="1.0" standalone="no"?>
<!DOCTYPE svg PUBLIC "-//W3C//DTD SVG 20010904//EN"
 "http://www.w3.org/TR/2001/REC-SVG-20010904/DTD/svg10.dtd">
<svg version="1.0" xmlns="http://www.w3.org/2000/svg"
 width="64.000000pt" height="64.000000pt" viewBox="0 0 64.000000 64.000000"
 preserveAspectRatio="xMidYMid meet">

<g transform="translate(0.000000,64.000000) scale(0.100000,-0.100000)"
fill="#000000" stroke="none">
<path d="M40 370 l0 -190 240 0 240 0 0 190 0 190 -240 0 -240 0 0 -190z m440
0 l0 -150 -200 0 -200 0 0 150 0 150 200 0 200 0 0 -150z"/>
<path d="M134 466 c-10 -26 4 -48 28 -44 33 4 33 52 0 56 -13 2 -25 -3 -28
-12z"/>
<path d="M346 426 c-8 -13 -29 -27 -46 -31 -22 -5 -36 -17 -47 -40 -15 -32
-38 -41 -27 -11 3 7 -2 19 -11 26 -14 11 -21 8 -55 -25 -24 -23 -40 -48 -40
-62 l0 -23 160 0 c88 0 160 1 160 3 0 31 -26 126 -42 152 -24 41 -31 43 -52
11z"/>
<path d="M557 430 c-3 -13 0 -20 9 -20 8 0 14 -5 14 -12 0 -13 -51 -282 -54
-285 -1 -2 -49 6 -107 17 -63 12 -141 20 -199 19 l-95 -1 215 -43 c118 -23
216 -42 217 -41 3 2 73 370 70 371 -1 1 -16 5 -33 8 -26 5 -33 2 -37 -13z"/>
</g>
</svg>
